<?xml version="1.0" encoding="utf-8"?>
<!-- Generator: Adobe Illustrator 19.0.0, SVG Export Plug-In . SVG Version: 6.00 Build 0)  -->
<svg version="1.1" xmlns="http://www.w3.org/2000/svg" xmlns:xlink="http://www.w3.org/1999/xlink" x="0px" y="0px"
	 viewBox="0 0 150 150" style="enable-background:new 0 0 150 150;" xml:space="preserve">
<style type="text/css">
	.st0{fill:none;}
	.st1{fill:#698FE0;}
	.st2{fill:url(#Nouvelle_nuance_de_motif_4);}
	.st3{display:none;}
	.st4{display:inline;}
	.st5{fill:#F9B44C;}
	.st6{fill:#FFFFFF;stroke:#FFFFFF;stroke-width:9.9213;stroke-miterlimit:10;}
	.st7{fill:none;stroke:#FFFFFF;stroke-width:9.9213;stroke-miterlimit:10;}
	.st8{display:inline;fill:#FFFFFF;stroke:#F9B44C;stroke-width:2.8346;stroke-miterlimit:10;}
	.st9{display:inline;fill:none;stroke:#F9B44C;stroke-width:2.8346;stroke-linecap:round;stroke-miterlimit:10;}
	.st10{display:inline;fill:none;stroke:#F9B44C;stroke-width:2.8346;stroke-miterlimit:10;}
	.st11{display:inline;fill:#FFFFFF;stroke:#F9B44C;stroke-width:2.8346;stroke-linecap:round;stroke-miterlimit:10;}
	.st12{display:inline;fill:#F9B44C;}
	.st13{display:inline;fill:#F9B44C;stroke:#FFFFFF;stroke-width:8.5039;stroke-linecap:round;stroke-miterlimit:10;}
	.st14{display:inline;fill:#FFFFFF;}
	.st15{fill:none;stroke:#F9B44C;stroke-width:2.8346;stroke-miterlimit:10;}
	.st16{fill:#D8E2EF;}
	.st17{fill:#698FE0;stroke:#FFFFFF;stroke-width:2.8346;stroke-miterlimit:10;}
	.st18{fill:none;stroke:#FFFFFF;stroke-width:2.8346;stroke-miterlimit:10;}
	.st19{fill:none;stroke:#FFFFFF;stroke-width:2.8346;stroke-linecap:round;stroke-miterlimit:10;}
	.st20{fill:#815BAC;}
	.st21{fill:#FF98AF;}
	.st22{fill:#06195D;}
	.st23{fill:#FCB44A;}
	.st24{fill:#FFFFFF;}
</style>
<pattern  y="150" width="9.7" height="9.7" patternUnits="userSpaceOnUse" id="Nouvelle_nuance_de_motif_4" viewBox="0 -9.7 9.7 9.7" style="overflow:visible;">
	<g>
		<polygon class="st0" points="0,0 9.7,0 9.7,-9.7 0,-9.7 		"/>
		<polygon class="st1" points="9.7,0 0,0 0,-9.7 9.7,-9.7 		"/>
	</g>
</pattern>
<g id="Calque_1">
	<rect class="st2" width="150" height="150"/>
	<g id="Calque_1_1_" class="st3">
		<g id="XMLID_9_" class="st4">
			<path id="XMLID_16_" class="st5" d="M-137.2,119.3c3.7-0.6,7.4-1,11-1.5c3.7-0.5,7.4-0.8,11.1-1.1l5.6-0.5
				c1.9-0.2,3.7-0.3,5.6-0.4l5.6-0.3l5.6-0.3c3.7-0.2,7.4-0.3,11.1-0.3c1.9,0,3.7,0,5.6,0s3.7,0,5.6,0c3.7,0.1,7.4,0.2,11.1,0.3
				c1.9,0.1,3.7,0.1,5.6,0.3c1.9,0.2,3.8,0.5,5.6,1.3l1.1,0.5l-1.1,0.5c-1.8,0.8-3.7,1-5.5,1.2s-3.7,0.3-5.5,0.5l-11,1
				c-3.7,0.3-7.3,0.8-10.9,1.1l-10.9,1.2l-21.9,2.4l-10.9,1.2c-3.6,0.4-7.3,0.9-10.9,1.3c-3.6,0.4-7.3,0.9-10.9,1.4
				c-3.6,0.5-7.3,0.9-10.9,1.5c-3.6,0.5-7.2,1-10.9,1.6c-3.6,0.6-7.2,1.1-10.8,1.9c-1.8,0.4-3.5,0.8-5.2,1.4
				c-0.4,0.1-0.8,0.3-0.9,0.4c0,0,0,0.1,0.1-0.2l0,0l0,0c0-0.1,0-0.2,0-0.2c0-0.1-0.1-0.1-0.1-0.2c-0.1-0.1,0,0,0.2,0.1
				c0.6,0.3,1.5,0.6,2.4,0.7c0.9,0.2,1.7,0.3,2.7,0.4c0.9,0.1,1.8,0.1,2.7,0.2c1.8,0.1,3.6,0.1,5.5,0.2c7.3,0.2,14.7,0,22,0.3v0.3
				c-3.7,0.1-7.3,0.3-11,0.4c-3.7,0.1-7.3,0.3-11,0.3c-1.8,0-3.7,0-5.5,0c-0.9,0-1.9,0-2.8-0.1c-0.9-0.1-1.9-0.1-2.8-0.3
				c-0.9-0.2-1.9-0.3-2.9-0.8c-0.3-0.1-0.6-0.3-0.9-0.7c-0.1-0.1-0.2-0.3-0.2-0.5c0-0.1,0-0.2,0-0.4v-0.2c0.1-0.5,0.3-0.6,0.5-0.8
				c0.6-0.5,1-0.7,1.5-0.9c1.8-0.7,3.6-1.2,5.4-1.7c3.6-0.9,7.2-1.6,10.8-2.2c3.6-0.7,7.2-1.3,10.9-1.9c3.6-0.6,7.3-1.1,10.9-1.6
				c3.6-0.5,7.3-0.9,10.9-1.4c7.3-0.8,14.6-1.5,21.9-2.2c3.7-0.3,7.3-0.6,11-0.9s7.3-0.6,11-0.8l11-0.7c3.7-0.3,7.3-0.5,11-0.8
				l11-0.9c1.8-0.2,3.7-0.3,5.5-0.6c1.8-0.2,3.6-0.5,5.1-1.3v1c-1.6-0.7-3.4-0.8-5.2-0.9s-3.7-0.1-5.5,0c-3.7,0.1-7.4,0.2-11.1,0.3
				l-22.2,0.6l-11.1,0.4l-11.1,0.4l-22.2,1.1L-137.2,119.3z"/>
		</g>
		<g id="XMLID_10_" class="st4">
			<path id="XMLID_18_" class="st6" d="M-129.2,128.7l-15.7,6.5c-1.7,0.7-3.7-0.9-3.3-2.7l3.2-17.4c0.1-0.7,1-0.9,1.5-0.4l14.5,12.5
				C-128.5,127.6-128.5,128.5-129.2,128.7z"/>
			<path id="XMLID_17_" class="st6" d="M-123.7,122.5l-15.6-13.2c-0.2-0.2-0.3-0.6-0.1-0.8l74.9-84.9c0.3-0.4,0.9-0.4,1.2-0.1
				l11.7,9.9c0.3,0.3,0.4,0.8,0.1,1.2l-70.9,87.9C-122.7,122.8-123.3,122.8-123.7,122.5z"/>
			<path id="XMLID_14_" class="st6" d="M-47.1,28.3l-11.9-10c-0.1-0.1-0.1-0.3,0-0.4l1.4-1.6c2.4-2.9,6.7-3.2,9.6-0.8l1.5,1.3
				c3,2.5,3.3,7,0.8,10L-47.1,28.3C-47,28.3-47.1,28.3-47.1,28.3z"/>
			<path id="XMLID_12_" class="st6" d="M-126.6,109.1L-126.6,109.1c-1.5-1.3-1.7-3.6-0.4-5l30.3-34.9c1.3-1.5,3.6-1.7,5-0.4l0,0
				c1.5,1.3,1.7,3.6,0.4,5l-30.3,34.9C-122.8,110.2-125.1,110.4-126.6,109.1z"/>
			<line id="XMLID_11_" class="st7" x1="-110.9" y1="85.6" x2="-105.4" y2="90.2"/>
		</g>
		<path id="XMLID_4_" class="st8" d="M-127.2,127.1l-15.7,6.5c-1.7,0.7-3.7-0.9-3.3-2.7l3.2-17.4c0.1-0.7,1-0.9,1.5-0.4l14.5,12.5
			C-126.5,126-126.5,126.9-127.2,127.1z"/>
		<path id="XMLID_1_" class="st8" d="M-121.7,120.9l-15.6-13.2c-0.2-0.2-0.3-0.6-0.1-0.8L-62.5,22c0.3-0.4,0.9-0.4,1.2-0.1l11.7,9.9
			c0.3,0.3,0.4,0.8,0.1,1.2l-70.9,87.9C-120.7,121.2-121.3,121.2-121.7,120.9z"/>
		<path id="XMLID_2_" class="st8" d="M-45.1,26.7l-11.9-10c-0.1-0.1-0.1-0.3,0-0.4l1.4-1.6c2.4-2.9,6.7-3.2,9.6-0.8l1.5,1.3
			c3,2.5,3.3,7,0.8,10L-45.1,26.7C-45,26.7-45.1,26.7-45.1,26.7z"/>
		<line id="XMLID_3_" class="st9" x1="-147.7" y1="136.8" x2="-147.1" y2="136.2"/>
		<path id="XMLID_5_" class="st8" d="M-124.6,107.5L-124.6,107.5c-1.5-1.3-1.7-3.6-0.4-5l30.3-34.9c1.3-1.5,3.6-1.7,5-0.4l0,0
			c1.5,1.3,1.7,3.6,0.4,5l-30.3,34.9C-120.8,108.6-123.1,108.8-124.6,107.5z"/>
		<line id="XMLID_6_" class="st10" x1="-108.9" y1="84" x2="-103.4" y2="88.6"/>
		<path id="XMLID_49_" class="st11" d="M417.3,53.4"/>
		<path id="XMLID_48_" class="st11" d="M488.9,50.9"/>
		<path id="XMLID_47_" class="st12" d="M467.6,4.6c0,0-4.7-5.8-10.7-7.1c-2.6-0.5-4.7-0.3-5.1-0.2c-9.3,1-16.1,9.4-15.1,18.7
			s9.4,16.1,18.7,15.1c2.4-0.3,4.6-1.1,4.9-1.3c4.9-2.1,8.3-7.7,8.3-7.7l6.7,4c0,0-6.4,8.6-11.7,10.8c-1.1,0.4-3.9,1.6-7,1.8
			c-9.2,0.8-24.8-6-26.4-21.3C428.6,2.3,442.1-7.7,451.5-9c3.1-0.4,5.9,0.1,7.2,0.3c7.9,1.5,15.2,10,15.2,10L467.6,4.6z"/>
		<circle id="XMLID_46_" class="st13" cx="475.1" cy="12.6" r="13.2"/>
		<circle id="XMLID_45_" class="st14" cx="475.3" cy="12.6" r="4.3"/>
		<g id="XMLID_38_" class="st4">
			<path id="XMLID_44_" class="st5" d="M519.2,27.5c0,0-0.1-0.8-0.2-2.3c0-0.4-0.1-0.8-0.1-1.3c0-0.2,0-0.5-0.1-0.7
				c0-0.2-0.1-0.5-0.1-0.7c-0.2-1.1-0.3-2.4-0.5-3.7c-0.4-2.7-1.2-6-2.3-9.6c-1.2-3.6-2.8-7.6-5-11.6c-0.6-1-1.2-2-1.8-3
				c-0.7-1-1.3-2-2.1-3c-1.4-2-3-4-4.7-5.9c-3.5-3.8-7.7-7.4-12.4-10.5c-2.4-1.5-4.8-2.9-7.5-4.1c-0.6-0.3-1.3-0.6-2-0.9
				s-1.3-0.6-2-0.8c-1.3-0.5-2.7-1-4.1-1.4c-2.8-0.8-5.7-1.5-8.6-1.9s-5.9-0.6-8.8-0.6h-2.3c-0.8,0-1.5,0.1-2.2,0.1
				c-1.4,0.1-2.9,0.3-4.3,0.4c-2.9,0.4-5.8,1.1-8.6,1.9l-2.1,0.7c-0.7,0.2-1.4,0.5-2,0.8c-0.7,0.2-1.4,0.5-2,0.8
				c-0.7,0.3-1.3,0.5-2,0.9c-2.6,1.2-5.1,2.6-7.5,4.1c-4.7,3.1-8.9,6.6-12.4,10.5c-1.7,1.9-3.3,3.9-4.7,5.9c-0.8,1-1.4,2-2.1,3
				c-0.6,1-1.2,2-1.8,3c-2.2,4-3.9,8-5,11.6s-1.9,6.9-2.3,9.6c-0.3,1.4-0.4,2.6-0.5,3.7c-0.2,1-0.2,2-0.2,2.7
				c-0.1,1.5-0.2,2.3-0.2,2.3h-0.6c0,0,0-0.8-0.1-2.3s-0.1-3.7,0.1-6.6c0.2-2.8,0.6-6.2,1.5-10.1c0.9-3.8,2.3-8.1,4.3-12.5
				c2.1-4.4,4.9-8.9,8.4-13.2c1.8-2.1,3.7-4.2,5.9-6.2c2.2-2,4.5-3.9,7-5.6c5-3.5,10.7-6.3,16.8-8.3c3-1,6.2-1.7,9.4-2.2
				c3.2-0.5,6.5-0.7,9.7-0.8c3.2,0,6.5,0.3,9.7,0.8s6.3,1.3,9.4,2.2c6.1,2,11.8,4.8,16.8,8.3c2.5,1.7,4.8,3.6,7,5.6
				c2.1,2,4.1,4.1,5.9,6.2c3.5,4.3,6.3,8.8,8.4,13.2c2.1,4.4,3.4,8.7,4.3,12.5c0.9,3.8,1.3,7.3,1.5,10.1c0.1,1.4,0.1,2.7,0.1,3.8
				c0,1.1-0.1,2-0.1,2.8c-0.1,1.5-0.1,2.3-0.1,2.3L519.2,27.5z"/>
		</g>
		<g id="XMLID_35_" class="st4">
			<path id="XMLID_37_" class="st5" d="M394.1,31c0,0,0.2,0.4,0.5,1c0.3,0.7,0.8,1.6,1.5,2.8s1.6,2.5,2.8,4c1.1,1.5,2.5,3.1,4.1,4.7
				c1.6,1.7,3.5,3.3,5.5,5c2,1.6,4.2,3.3,6.6,4.8s4.9,3,7.6,4.3s5.4,2.5,8.3,3.5c2.8,1,5.8,1.8,8.7,2.4l0.5,0.1l0.5,0.1l1.1,0.2
				c0.8,0.2,1.5,0.3,2.2,0.4s1.4,0.2,2.1,0.3c0.7,0.1,1.4,0.2,2.1,0.2c2.8,0.3,5.6,0.4,8.2,0.3s5.1-0.2,7.4-0.5s4.4-0.6,6.3-1
				s3.5-0.7,4.8-1.1c0.7-0.2,1.3-0.3,1.8-0.5c0.5-0.1,1-0.3,1.3-0.4c0.7-0.2,1.1-0.3,1.1-0.3s-0.3,0.2-1,0.6c-0.6,0.4-1.6,1-2.8,1.6
				c-1.2,0.6-2.8,1.4-4.6,2.1c-0.9,0.4-1.9,0.7-2.9,1.1c-1,0.3-2.2,0.7-3.3,1c-4.7,1.3-10.4,2.1-16.5,2c-0.8,0-1.5,0-2.3-0.1
				c-0.8,0-1.6-0.1-2.4-0.2s-1.6-0.2-2.4-0.3l-1.1-0.2l-0.6-0.1l-0.6-0.1c-3.2-0.6-6.4-1.4-9.5-2.5s-6.1-2.4-8.9-4
				c-2.8-1.5-5.5-3.3-8-5.1s-4.7-3.8-6.6-5.8s-3.7-4-5.1-6c-1.5-2-2.6-3.9-3.5-5.7s-1.5-3.4-2-4.7s-0.7-2.4-0.8-3.2
				C394.2,31.4,394.1,31,394.1,31z"/>
		</g>
		<path id="XMLID_21_" class="st11" d="M242.5,55.8"/>
		<path id="XMLID_7_" class="st11" d="M314.2,53.3"/>
		<path id="XMLID_23_" class="st12" d="M292.9,7c0,0-4.7-5.8-10.7-7.1c-2.6-0.5-4.7-0.3-5.1-0.2c-9.3,1-16.1,9.4-15.1,18.7
			s9.4,16.1,18.7,15.1c2.4-0.3,4.6-1.1,4.9-1.3c4.9-2.1,8.3-7.7,8.3-7.7l6.7,4c0,0-6.4,8.6-11.7,10.8c-1.1,0.4-3.9,1.6-7,1.8
			c-9.2,0.8-24.8-6-26.4-21.3c-1.6-15.1,11.9-25.1,21.3-26.4c3.1-0.4,5.9,0.1,7.2,0.3c7.9,1.5,15.2,10,15.2,10L292.9,7z"/>
		<g id="XMLID_25_" class="st4">
			<path id="XMLID_29_" class="st15" d="M212.4-28.2c-2.9,1.5-8.7,2.9-16.1,2.9C179-25.3,166-36.2,166-56.2
				c0-19.1,13-32.1,31.9-32.1c7.6,0,12.4,1.6,14.5,2.7l-1.9,6.4c-3-1.5-7.3-2.5-12.3-2.5c-14.3,0-23.9,9.2-23.9,25.2
				c0,15,8.6,24.6,23.5,24.6c4.8,0,9.7-1,12.9-2.5L212.4-28.2z"/>
		</g>
		<circle id="XMLID_13_" class="st13" cx="300.4" cy="15" r="13.2"/>
		<circle id="XMLID_19_" class="st14" cx="300.6" cy="15" r="4.3"/>
		<path id="XMLID_32_" class="st10" d="M282.1-28.4c33.2,0,60.3,25.7,62.6,58.3c0.1-1.5,0.2-2.9,0.2-4.4c0-34.6-28.1-62.7-62.7-62.7
			s-62.7,28.1-62.7,62.7c0,1.5,0.1,3,0.2,4.4C221.8-2.7,249-28.4,282.1-28.4z"/>
		<path id="XMLID_8_" class="st9" d="M219.1,28.6c1.9,6.4,5.9,12,10.6,16.8c9.4,9.6,21.9,16.2,35.1,18.7c13.2,2.5,27.2,0.8,39.5-4.8
			"/>
	</g>
	<g>
		<polygon class="st16" points="-176.5,142.3 -54,138.4 -176.4,145.1 		"/>
	</g>
	<path class="st17" d="M-60.4,108.4l-114.5,34.9c-0.5,0.2-1.1-0.1-1.3-0.7l-22.6-74.5c-0.2-0.5,0.2-1.1,0.7-1.2L-83.5,32
		c0.5-0.2,1.1,0.1,1.3,0.7l22.7,74.5C-59.5,107.6-59.8,108.2-60.4,108.4z"/>
	<path id="XMLID_15_" class="st18" d="M-121.6,68.8c0,0-5.3-3.6-10.6-3.1c-2.3,0.2-3.9,0.9-4.2,1.1c-7.4,3.2-10.9,11.8-7.7,19.2
		s11.7,10.8,19.1,7.7c1.9-0.8,3.5-2.1,3.7-2.3c3.5-3,4.9-8.3,4.9-8.3l6.5,1.6c0,0-3.1,8.7-6.8,11.8c-0.8,0.6-2.8,2.3-5.3,3.3
		c-7.4,2.9-21.8,1.3-27-10.8c-5.1-12,3.5-23.6,10.8-27c2.4-1.1,4.8-1.4,6-1.6c6.9-0.8,15,4.4,15,4.4L-121.6,68.8z"/>
	<circle class="st18" cx="-131.2" cy="81" r="5.2"/>
	<line class="st19" x1="-171.1" y1="134.1" x2="-68.8" y2="103.2"/>
	<line class="st19" x1="-148.8" y1="118.6" x2="-97.6" y2="103.2"/>
	<g id="Calque_2">
	</g>
</g>
<g id="Calque_2_1_">
	<rect x="-136.4" y="4.2" class="st20" width="9.7" height="9.7"/>
	<rect x="-121.6" y="4.2" class="st21" width="9.7" height="9.7"/>
	<rect x="-106.9" y="4.2" class="st1" width="9.7" height="9.7"/>
	<rect x="-92.8" y="4.2" class="st22" width="9.7" height="9.7"/>
	<rect x="-78.8" y="4.2" class="st23" width="9.7" height="9.7"/>
	<g>
		<path class="st24" d="M14.9,73.7c-0.5,0.2-1.5,0.5-2.9,0.5c-4,0-6-2.5-6-5.7c0-3.9,2.8-6.1,6.3-6.1c1.3,0,2.4,0.3,2.8,0.5
			l-0.5,2.1c-0.5-0.2-1.3-0.4-2.2-0.4c-2.1,0-3.7,1.2-3.7,3.8c0,2.3,1.4,3.7,3.7,3.7c0.8,0,1.7-0.2,2.2-0.4L14.9,73.7z"/>
		<path class="st24" d="M26.6,68.1c0,3.8-2.3,6-5.6,6c-3.4,0-5.4-2.6-5.4-5.8c0-3.4,2.2-6,5.6-6C24.7,62.3,26.6,65,26.6,68.1z
			 M18.3,68.3c0,2.2,1.1,3.8,2.8,3.8c1.8,0,2.8-1.7,2.8-3.9c0-2.1-1-3.8-2.8-3.8C19.4,64.4,18.3,66.1,18.3,68.3z"/>
		<path class="st24" d="M38,69.6c-0.1-1.4-0.1-3-0.1-4.7h-0.1c-0.4,1.5-0.8,3.1-1.3,4.4l-1.4,4.5h-2l-1.2-4.4c-0.4-1.3-0.8-3-1-4.5
			h0c-0.1,1.5-0.1,3.3-0.2,4.7L30.5,74h-2.4l0.7-11.5h3.5l1.1,3.8c0.4,1.3,0.7,2.8,1,4.1h0.1c0.3-1.3,0.7-2.8,1.1-4.1l1.2-3.8h3.4
			L40.7,74h-2.5L38,69.6z"/>
		<path class="st24" d="M52.4,69.6c-0.1-1.4-0.1-3-0.1-4.7h-0.1c-0.4,1.5-0.8,3.1-1.3,4.4l-1.4,4.5h-2l-1.2-4.4
			c-0.4-1.3-0.8-3-1-4.5h0c-0.1,1.5-0.1,3.3-0.2,4.7L44.8,74h-2.4l0.7-11.5h3.5l1.1,3.8c0.4,1.3,0.7,2.8,1,4.1h0.1
			c0.3-1.3,0.7-2.8,1.1-4.1l1.2-3.8h3.4L55.1,74h-2.5L52.4,69.6z"/>
		<path class="st24" d="M59.7,62.5v6.6c0,2,0.7,3,2.1,3c1.4,0,2.1-1,2.1-3v-6.6h2.6V69c0,3.5-1.8,5.2-4.8,5.2
			c-2.9,0-4.6-1.6-4.6-5.3v-6.4H59.7z"/>
		<path class="st24" d="M68.7,74V62.5h3l2.4,4.2c0.7,1.2,1.4,2.6,1.9,3.9H76c-0.2-1.5-0.2-3.1-0.2-4.8v-3.4h2.4V74h-2.7L73,69.6
			c-0.7-1.2-1.4-2.7-2-4l-0.1,0c0.1,1.5,0.1,3.1,0.1,5V74H68.7z"/>
		<path class="st24" d="M83,62.5V74h-2.6V62.5H83z"/>
		<path class="st24" d="M93.7,73.7c-0.5,0.2-1.5,0.5-2.9,0.5c-4,0-6-2.5-6-5.7c0-3.9,2.8-6.1,6.3-6.1c1.3,0,2.4,0.3,2.8,0.5
			l-0.5,2.1c-0.5-0.2-1.3-0.4-2.2-0.4c-2.1,0-3.7,1.2-3.7,3.8c0,2.3,1.4,3.7,3.7,3.7c0.8,0,1.7-0.2,2.2-0.4L93.7,73.7z"/>
		<path class="st24" d="M98.2,71.1L97.4,74h-2.7l3.5-11.5h3.4l3.6,11.5h-2.8l-0.9-2.9H98.2z M101.1,69.1l-0.7-2.4
			c-0.2-0.7-0.4-1.5-0.6-2.2h0c-0.2,0.7-0.3,1.5-0.5,2.2l-0.7,2.4H101.1z"/>
		<path class="st24" d="M107.5,64.7h-3.1v-2.2h8.8v2.2h-3.1V74h-2.6V64.7z"/>
		<path class="st24" d="M117.2,62.5V74h-2.6V62.5H117.2z"/>
		<path class="st24" d="M130,68.1c0,3.8-2.3,6-5.6,6c-3.4,0-5.4-2.6-5.4-5.8c0-3.4,2.2-6,5.6-6C128,62.3,130,65,130,68.1z
			 M121.7,68.3c0,2.2,1.1,3.8,2.8,3.8c1.8,0,2.8-1.7,2.8-3.9c0-2.1-1-3.8-2.8-3.8C122.7,64.4,121.7,66.1,121.7,68.3z"/>
		<path class="st24" d="M131.7,74V62.5h3l2.4,4.2c0.7,1.2,1.4,2.6,1.9,3.9h0.1c-0.2-1.5-0.2-3.1-0.2-4.8v-3.4h2.4V74h-2.7l-2.5-4.4
			c-0.7-1.2-1.4-2.7-2-4l-0.1,0c0.1,1.5,0.1,3.1,0.1,5V74H131.7z"/>
		<path class="st24" d="M41.7,94.4L38,82.9h2.8l1.4,4.8c0.4,1.4,0.7,2.7,1,4.1h0.1c0.3-1.4,0.6-2.7,1-4l1.5-4.9h2.8l-3.9,11.5H41.7z
			"/>
		<path class="st24" d="M52.4,82.9v11.5h-2.6V82.9H52.4z"/>
		<path class="st24" d="M54.7,91.7c0.7,0.4,1.8,0.7,2.9,0.7c1.2,0,1.8-0.5,1.8-1.2c0-0.7-0.5-1.1-1.9-1.6c-1.9-0.7-3.1-1.7-3.1-3.4
			c0-2,1.6-3.5,4.3-3.5c1.3,0,2.2,0.3,2.9,0.6L61,85.4c-0.5-0.2-1.3-0.5-2.4-0.5S57,85.4,57,86c0,0.7,0.6,1.1,2.1,1.6
			c2,0.7,3,1.8,3,3.4c0,1.9-1.5,3.6-4.6,3.6c-1.3,0-2.6-0.3-3.2-0.7L54.7,91.7z"/>
		<path class="st24" d="M66.4,82.9v6.6c0,2,0.7,3,2.1,3c1.4,0,2.1-1,2.1-3v-6.6h2.6v6.4c0,3.5-1.8,5.2-4.8,5.2
			c-2.9,0-4.6-1.6-4.6-5.3v-6.4H66.4z"/>
		<path class="st24" d="M82.2,89.6H78v2.7h4.7v2.1h-7.3V82.9h7.1v2.1H78v2.4h4.2V89.6z"/>
		<path class="st24" d="M84.5,82.9h2.6v9.3h4.6v2.2h-7.2V82.9z"/>
		<path class="st24" d="M93.2,82.9h2.6v9.3h4.6v2.2h-7.2V82.9z"/>
		<path class="st24" d="M108.7,89.6h-4.2v2.7h4.7v2.1h-7.3V82.9h7.1v2.1h-4.5v2.4h4.2V89.6z"/>
	</g>
</g>
</svg>
