<?xml version="1.0" encoding="utf-8"?>
<!-- Generator: Adobe Illustrator 19.0.0, SVG Export Plug-In . SVG Version: 6.00 Build 0)  -->
<svg version="1.1" id="Calque_1" xmlns="http://www.w3.org/2000/svg" xmlns:xlink="http://www.w3.org/1999/xlink" x="0px" y="0px"
	 viewBox="-62 64 24 24" style="enable-background:new -62 64 24 24;" xml:space="preserve">
<style type="text/css">
	.st0{fill:#FFFFFF;}
</style>
<g>
	<g>
		<path class="st0" d="M-45.5,64h-9c-4.1,0-7.5,3.4-7.5,7.5v9c0,4.1,3.4,7.5,7.5,7.5h9c4.1,0,7.5-3.4,7.5-7.5v-9
			C-38,67.4-41.4,64-45.5,64z M-40.3,80.5c0,2.9-2.4,5.3-5.3,5.3h-9c-2.9,0-5.3-2.4-5.3-5.3v-9c0-2.9,2.4-5.3,5.3-5.3h9
			c2.9,0,5.3,2.4,5.3,5.3V80.5z"/>
	</g>
</g>
<g>
	<g>
		<path class="st0" d="M-50,70c-3.3,0-6,2.7-6,6s2.7,6,6,6s6-2.7,6-6S-46.7,70-50,70z M-50,79.8c-2.1,0-3.8-1.7-3.8-3.8
			c0-2.1,1.7-3.8,3.8-3.8s3.8,1.7,3.8,3.8C-46.3,78.1-47.9,79.8-50,79.8z"/>
	</g>
</g>
<g>
	<g>
		<circle class="st0" cx="-43.5" cy="69.6" r="0.8"/>
	</g>
</g>
</svg>
