<?xml version="1.0" encoding="utf-8"?>
<!-- Generator: Adobe Illustrator 19.0.0, SVG Export Plug-In . SVG Version: 6.00 Build 0)  -->
<svg version="1.1" id="Calque_1" xmlns="http://www.w3.org/2000/svg" xmlns:xlink="http://www.w3.org/1999/xlink" x="0px" y="0px"
	 viewBox="-62 64 24 24" style="enable-background:new -62 64 24 24;" xml:space="preserve">
<style type="text/css">
	.st0{fill:#FFFFFF;}
</style>
<path class="st0" d="M-50,64c-6.6,0-12,5.4-12,12s5.4,12,12,12s12-5.4,12-12S-43.4,64-50,64z M-53.5,82.1h-2.9v-8.8h2.9V82.1z
	 M-54.9,72.1L-54.9,72.1c-1,0-1.6-0.7-1.6-1.5c0-0.9,0.7-1.5,1.7-1.5s1.6,0.7,1.6,1.5C-53.3,71.5-53.9,72.1-54.9,72.1z M-42.9,82.1
	h-2.9v-4.7c0-1.2-0.4-2-1.5-2c-0.8,0-1.3,0.5-1.5,1.1c-0.1,0.2-0.1,0.5-0.1,0.7v4.9h-2.9c0,0,0-8,0-8.8h2.9v1.2
	c0.4-0.6,1.1-1.5,2.6-1.5c1.9,0,3.4,1.3,3.4,4V82.1z"/>
</svg>
