<?xml version="1.0" encoding="utf-8"?>
<!-- Generator: Adobe Illustrator 19.0.0, SVG Export Plug-In . SVG Version: 6.00 Build 0)  -->
<svg version="1.1" id="Calque_1" xmlns="http://www.w3.org/2000/svg" xmlns:xlink="http://www.w3.org/1999/xlink" x="0px" y="0px"
	 viewBox="-285 408.9 24 24" style="enable-background:new -285 408.9 24 24;" xml:space="preserve">
<style type="text/css">
	.st0{fill:#FFFFFF;}
</style>
<path class="st0" d="M-273,408.9c-6.6,0-12,5.4-12,12s5.4,12,12,12s12-5.4,12-12S-266.4,408.9-273,408.9z M-269,429.7h-8
	c-2.7,0-4.8-2.1-4.8-4.8v-8c0-2.7,2.1-4.8,4.8-4.8h8c2.7,0,4.8,2.1,4.8,4.8v8C-264.2,427.6-266.3,429.7-269,429.7z"/>
<path class="st0" d="M-270.7,420.5c-0.1-0.5-0.3-1-0.7-1.3c-0.4-0.4-0.9-0.6-1.3-0.7c-0.1,0-0.2,0-0.4,0c-0.4,0-0.8,0.1-1.1,0.2
	c-0.5,0.3-0.8,0.6-1,1.1c-0.2,0.4-0.3,0.9-0.2,1.5c0.1,0.5,0.3,0.9,0.7,1.3c0.4,0.4,0.8,0.6,1.3,0.7s1,0,1.5-0.2
	c0.4-0.2,0.8-0.5,1.1-1C-270.7,421.6-270.6,421-270.7,420.5L-270.7,420.5z"/>
<path class="st0" d="M-269,413.7h-8c-1.8,0-3.2,1.4-3.2,3.2v8c0,1.8,1.4,3.2,3.2,3.2h8c1.8,0,3.2-1.4,3.2-3.2v-8
	C-265.8,415.1-267.2,413.7-269,413.7z M-269.4,422.7c-0.3,0.6-0.9,1.4-1.9,1.7c-0.5,0.3-1.1,0.4-1.7,0.4c-0.2,0-0.4,0-0.6,0
	c-0.8-0.1-1.6-0.5-2.2-1.1s-1-1.4-1.1-2.2c-0.1-0.9,0-1.8,0.4-2.4c0.4-0.7,0.9-1.3,1.7-1.7c0.9-0.5,1.9-0.5,2.4-0.4
	c0.8,0.1,1.6,0.5,2.2,1.1c0.7,0.6,1.1,1.4,1.2,2.3C-268.9,420.8-268.9,421.8-269.4,422.7z M-268,417.1c-0.2,0.1-0.4,0.2-0.6,0.2
	s-0.4-0.1-0.6-0.2s-0.2-0.4-0.2-0.6s0.1-0.4,0.2-0.6c0.3-0.3,0.8-0.3,1.1,0c0.1,0.1,0.2,0.4,0.2,0.6S-267.9,416.9-268,417.1z"/>
</svg>
