<?xml version="1.0" encoding="utf-8"?>
<!-- Generator: Adobe Illustrator 19.0.0, SVG Export Plug-In . SVG Version: 6.00 Build 0)  -->
<svg version="1.1" id="Calque_1" xmlns="http://www.w3.org/2000/svg" xmlns:xlink="http://www.w3.org/1999/xlink" x="0px" y="0px"
	 viewBox="-62 64 24 24" style="enable-background:new -62 64 24 24;" xml:space="preserve">
<style type="text/css">
	.st0{fill:#FFFFFF;}
</style>
<path class="st0" d="M-38,76c0-6.6-5.4-12-12-12s-12,5.4-12,12s5.4,12,12,12c0.1,0,0.1,0,0.2,0v-9.3h-2.6v-3h2.6v-2.2
	c0-2.6,1.6-4,3.9-4c1.1,0,2,0.1,2.3,0.1v2.7h-1.6c-1.2,0-1.5,0.6-1.5,1.5v1.9h3l-0.4,3h-2.6v8.9C-41.7,86.1-38,81.5-38,76z"/>
</svg>
