<?xml version="1.0" encoding="utf-8"?>
<!-- Generator: Adobe Illustrator 19.0.0, SVG Export Plug-In . SVG Version: 6.00 Build 0)  -->
<svg version="1.1" id="Calque_1" xmlns="http://www.w3.org/2000/svg" xmlns:xlink="http://www.w3.org/1999/xlink" x="0px" y="0px"
	 viewBox="-285 408.9 24 24" style="enable-background:new -285 408.9 24 24;" xml:space="preserve">
<style type="text/css">
	.st0{fill:#FFFFFF;}
</style>
<path class="st0" d="M-273,408.9c-6.6,0-12,5.4-12,12s5.4,12,12,12s12-5.4,12-12S-266.4,408.9-273,408.9z M-277.5,427.6h-3v-9.1h3
	V427.6z M-279,416.2c-0.8,0-1.5-0.7-1.5-1.5s0.7-1.5,1.5-1.5s1.5,0.7,1.5,1.5S-278.2,416.2-279,416.2z M-265.4,427.6h-3v-5.3
	c0-0.4-0.2-0.8-0.5-1.1s-0.7-0.5-1.1-0.5s-0.8,0.2-1.1,0.5s-0.5,0.7-0.5,1.1v5.3h-3v-5.3c0-1.2,0.5-2.3,1.4-3.2
	c0.8-0.9,2-1.4,3.2-1.4s2.3,0.5,3.2,1.4c0.8,0.8,1.4,2,1.4,3.2V427.6z"/>
</svg>
