<?xml version="1.0" encoding="utf-8"?>
<!-- Generator: Adobe Illustrator 19.0.0, SVG Export Plug-In . SVG Version: 6.00 Build 0)  -->
<svg version="1.1" id="Calque_1" xmlns="http://www.w3.org/2000/svg" xmlns:xlink="http://www.w3.org/1999/xlink" x="0px" y="0px"
	 viewBox="-62 64 24 24" style="enable-background:new -62 64 24 24;" xml:space="preserve">
<style type="text/css">
	.st0{fill:#FFFFFF;}
</style>
<path class="st0" d="M-50,64c-6.6,0-12,5.4-12,12s5.4,12,12,12s12-5.4,12-12S-43.4,64-50,64z M-41.7,81.3L-41.7,81.3
	c-0.5,0.5-0.9,0.8-1.4,0.9c-1.3,0.4-6.3,0.4-6.9,0.4s-5.6,0-7-0.4c-0.4-0.1-0.9-0.4-1.3-0.7c-0.4-0.4-0.7-0.9-0.8-1.3
	c-0.3-1.2-0.4-2.5-0.4-4.3c0-1.7,0.1-3.1,0.4-4.3c0.1-0.5,0.3-1,0.7-1.4c0.3-0.4,0.8-0.7,1.4-0.8c1.3-0.4,6.3-0.4,6.9-0.4
	s5.5,0,6.9,0.3c0.6,0.2,1.1,0.4,1.4,0.8s0.6,0.8,0.7,1.3c0.3,1.2,0.4,2.6,0.4,4.2c0,1.3-0.1,2.8-0.4,4.3
	C-41.1,80.5-41.4,80.9-41.7,81.3z"/>
<g>
	<path class="st0" d="M-43.1,72L-43.1,72c0-0.2-0.2-0.5-0.4-0.6c-0.1-0.1-0.3-0.2-0.5-0.3c-0.9-0.2-4.7-0.3-6.1-0.3
		c-1.8,0-5.2,0.1-6,0.4c-0.3,0.1-0.5,0.2-0.5,0.3c0,0,0,0.1-0.1,0.1c-0.2,0.2-0.3,0.4-0.3,0.6c-0.3,1-0.4,2.1-0.4,3.6
		c0,1.6,0.1,2.7,0.4,3.7c0,0.2,0.2,0.4,0.3,0.6c0.1,0.1,0.4,0.3,0.6,0.3c0.8,0.3,4.1,0.4,6.1,0.4c1.8,0,5.2-0.1,6-0.4
		c0.2,0,0.4-0.1,0.6-0.3c0.2-0.2,0.3-0.5,0.4-0.6c0.2-1.3,0.4-2.6,0.4-3.7C-42.8,74.2-42.9,73-43.1,72z M-47,76.3l-4.1,2.4
		c-0.1,0.1-0.3,0.1-0.4,0.1s-0.3,0-0.4-0.1c-0.2-0.1-0.4-0.4-0.4-0.6v-4.7c0-0.3,0.1-0.5,0.4-0.6c0.2-0.1,0.5-0.1,0.7,0l4.1,2.3
		c0.2,0.1,0.4,0.4,0.4,0.6C-46.7,76-46.8,76.2-47,76.3z"/>
	<polygon class="st0" points="-50.5,76.4 -49.2,75.7 -50.5,75 	"/>
</g>
</svg>
