<?xml version="1.0" encoding="utf-8"?>
<!-- Generator: Adobe Illustrator 19.0.0, SVG Export Plug-In . SVG Version: 6.00 Build 0)  -->
<svg version="1.1" id="Calque_1" xmlns="http://www.w3.org/2000/svg" xmlns:xlink="http://www.w3.org/1999/xlink" x="0px" y="0px"
	 viewBox="-285 408.9 24 24" style="enable-background:new -285 408.9 24 24;" xml:space="preserve">
<style type="text/css">
	.st0{fill:#FFFFFF;}
</style>
<path class="st0" d="M-273,408.9c-6.6,0-12,5.4-12,12s5.4,12,12,12s12-5.4,12-12S-266.4,408.9-273,408.9z M-264.7,426.2
	C-264.7,426.2-264.7,426.2-264.7,426.2c-0.5,0.5-0.9,0.8-1.4,0.9c-1.3,0.4-6.3,0.4-6.9,0.4s-5.6,0-7-0.4c-0.4-0.1-0.9-0.4-1.3-0.7
	c-0.4-0.4-0.7-0.9-0.8-1.3c-0.3-1.2-0.4-2.5-0.4-4.3c0-1.7,0.1-3.1,0.4-4.3c0.1-0.5,0.3-1,0.7-1.4c0.3-0.4,0.8-0.7,1.4-0.8
	c1.3-0.4,6.3-0.4,6.9-0.4c0.6,0,5.5,0,6.9,0.3c0.6,0.2,1.1,0.4,1.4,0.8c0.3,0.4,0.6,0.8,0.7,1.3c0.3,1.2,0.4,2.6,0.4,4.2
	c0,1.3-0.1,2.8-0.4,4.3C-264.1,425.4-264.4,425.8-264.7,426.2z"/>
<g>
	<path class="st0" d="M-265.5,416.6C-265.5,416.6-265.5,416.6-265.5,416.6c0-0.2-0.2-0.5-0.4-0.7c-0.1-0.1-0.3-0.2-0.5-0.3
		c-1-0.2-5.1-0.3-6.6-0.3c-2,0-5.6,0.1-6.5,0.4c-0.3,0.1-0.5,0.2-0.5,0.3c0,0,0,0.1-0.1,0.1c-0.2,0.2-0.3,0.4-0.3,0.6
		c-0.3,1.1-0.4,2.3-0.4,3.9c0,1.7,0.1,2.9,0.4,4c0,0.2,0.2,0.4,0.3,0.6c0.1,0.1,0.4,0.3,0.6,0.3c0.9,0.3,4.5,0.4,6.6,0.4
		c2,0,5.6-0.1,6.5-0.4c0.2,0,0.4-0.1,0.6-0.3c0.2-0.2,0.3-0.5,0.4-0.7c0.2-1.4,0.4-2.8,0.4-4C-265.2,419-265.3,417.7-265.5,416.6z
		 M-269.8,421.3l-4.5,2.6c-0.1,0.1-0.3,0.1-0.4,0.1c-0.1,0-0.3,0-0.4-0.1c-0.2-0.1-0.4-0.4-0.4-0.7v-5.1c0-0.3,0.1-0.5,0.4-0.7
		c0.2-0.1,0.5-0.1,0.8,0l4.5,2.5c0.2,0.1,0.4,0.4,0.4,0.7C-269.4,420.9-269.5,421.1-269.8,421.3z"/>
	<polygon class="st0" points="-273.9,421.8 -271.8,420.6 -273.9,419.4 	"/>
</g>
</svg>
