<?xml version="1.0" encoding="utf-8"?>
<!-- Generator: Adobe Illustrator 19.0.0, SVG Export Plug-In . SVG Version: 6.00 Build 0)  -->
<svg version="1.1" id="Calque_1" xmlns="http://www.w3.org/2000/svg" xmlns:xlink="http://www.w3.org/1999/xlink" x="0px" y="0px"
	 viewBox="-285 408.9 24 24" style="enable-background:new -285 408.9 24 24;" xml:space="preserve">
<style type="text/css">
	.st0{fill:#FFFFFF;}
</style>
<path class="st0" d="M-273,408.9c-6.6,0-12,5.4-12,12.1c0,5.8,4.1,10.6,9.5,11.8V425h-3v-4h3v-3c0-1.3,0.5-2.6,1.5-3.5
	c0.9-1,2.2-1.5,3.5-1.5h3v4h-3c-0.3,0-0.5,0.1-0.7,0.3c-0.2,0.2-0.3,0.4-0.3,0.7v3h4l-1,4h-3v7.9c5.9-0.7,10.5-5.8,10.5-11.9
	C-261,414.3-266.4,408.9-273,408.9z"/>
</svg>
