<?xml version="1.0" encoding="utf-8"?>
<!-- Generator: Adobe Illustrator 19.0.0, SVG Export Plug-In . SVG Version: 6.00 Build 0)  -->
<svg version="1.1" id="Calque_1" xmlns="http://www.w3.org/2000/svg" xmlns:xlink="http://www.w3.org/1999/xlink" x="0px" y="0px"
	 viewBox="0 0 150 150" style="enable-background:new 0 0 150 150;" xml:space="preserve">
<style type="text/css">
	.st0{fill:#698FE0;}
	.st1{fill:#FFFFFF;stroke:#FFFFFF;stroke-width:9.9213;stroke-miterlimit:10;}
	.st2{fill:none;stroke:#FFFFFF;stroke-width:9.9213;stroke-miterlimit:10;}
	.st3{fill:#FFFFFF;stroke:#698FE0;stroke-width:2.8346;stroke-miterlimit:10;}
	.st4{fill:none;stroke:#698FE0;stroke-width:2.8346;stroke-linecap:round;stroke-miterlimit:10;}
	.st5{fill:none;stroke:#698FE0;stroke-width:2.8346;stroke-miterlimit:10;}
</style>
<g id="XMLID_9_">
	<path id="XMLID_16_" class="st0" d="M51.9,129.6c3.7-0.6,7.4-1,11-1.5c3.7-0.5,7.4-0.8,11.1-1.1l5.6-0.5c1.9-0.2,3.7-0.3,5.6-0.4
		l5.6-0.3l5.6-0.3c3.7-0.2,7.4-0.3,11.1-0.3c1.9,0,3.7,0,5.6,0s3.7,0,5.6,0c3.7,0.1,7.4,0.2,11.1,0.3c1.9,0.1,3.7,0.1,5.6,0.3
		c1.9,0.2,3.8,0.5,5.6,1.3l1.1,0.5l-1.1,0.5c-1.8,0.8-3.7,1-5.5,1.2s-3.7,0.3-5.5,0.5l-11,1c-3.7,0.3-7.3,0.8-10.9,1.1l-10.9,1.2
		l-21.9,2.4l-10.9,1.2c-3.6,0.4-7.3,0.9-10.9,1.3c-3.6,0.4-7.3,0.9-10.9,1.4c-3.6,0.5-7.3,0.9-10.9,1.5c-3.6,0.5-7.2,1-10.9,1.6
		c-3.6,0.6-7.2,1.1-10.8,1.9c-1.8,0.4-3.5,0.8-5.2,1.4c-0.4,0.1-0.8,0.3-0.9,0.4c0,0,0,0.1,0.1-0.2l0,0l0,0c0-0.1,0-0.2,0-0.2
		c0-0.1-0.1-0.1-0.1-0.2c-0.1-0.1,0,0,0.2,0.1c0.6,0.3,1.5,0.6,2.4,0.7c0.9,0.2,1.7,0.3,2.7,0.4c0.9,0.1,1.8,0.1,2.7,0.2
		c1.8,0.1,3.6,0.1,5.5,0.2c7.3,0.2,14.7,0,22,0.3v0.3c-3.7,0.1-7.3,0.3-11,0.4c-3.7,0.1-7.3,0.3-11,0.3c-1.8,0-3.7,0-5.5,0
		c-0.9,0-1.9,0-2.8-0.1c-0.9-0.1-1.9-0.1-2.8-0.3s-1.9-0.3-2.9-0.8c-0.3-0.1-0.6-0.3-0.9-0.7c-0.1-0.1-0.2-0.3-0.2-0.5
		c0-0.1,0-0.2,0-0.4v-0.2c0.1-0.5,0.3-0.6,0.5-0.8c0.6-0.5,1-0.7,1.5-0.9c1.8-0.7,3.6-1.2,5.4-1.7c3.6-0.9,7.2-1.6,10.8-2.2
		c3.6-0.7,7.2-1.3,10.9-1.9c3.6-0.6,7.3-1.1,10.9-1.6s7.3-0.9,10.9-1.4c7.3-0.8,14.6-1.5,21.9-2.2c3.7-0.3,7.3-0.6,11-0.9
		s7.3-0.6,11-0.8l11-0.7c3.7-0.3,7.3-0.5,11-0.8l11-0.9c1.8-0.2,3.7-0.3,5.5-0.6c1.8-0.2,3.6-0.5,5.1-1.3v1
		c-1.6-0.7-3.4-0.8-5.2-0.9s-3.7-0.1-5.5,0c-3.7,0.1-7.4,0.2-11.1,0.3l-22.2,0.6l-11.1,0.4l-11.1,0.4l-22.2,1.1L51.9,129.6z"/>
</g>
<g id="XMLID_10_">
	<path id="XMLID_18_" class="st1" d="M59.9,139l-15.7,6.5c-1.7,0.7-3.7-0.9-3.3-2.7l3.2-17.4c0.1-0.7,1-0.9,1.5-0.4L60,137.4
		C60.6,137.9,60.5,138.7,59.9,139z"/>
	<path id="XMLID_17_" class="st1" d="M65.3,132.7l-15.6-13.2c-0.2-0.2-0.3-0.6-0.1-0.8l74.9-85c0.3-0.4,0.9-0.4,1.2-0.1l11.7,9.9
		c0.3,0.3,0.4,0.8,0.1,1.2l-70.9,87.9C66.4,133,65.7,133.1,65.3,132.7z"/>
	<path id="XMLID_14_" class="st1" d="M141.9,38.5L130,28.6c-0.1-0.1-0.1-0.3,0-0.4l1.4-1.6c2.4-2.9,6.7-3.2,9.6-0.8l1.5,1.3
		c3,2.5,3.3,7,0.8,10L141.9,38.5C142,38.6,142,38.6,141.9,38.5z"/>
	<path id="XMLID_12_" class="st1" d="M62.5,119.3L62.5,119.3c-1.5-1.3-1.7-3.6-0.4-5l30.3-34.9c1.3-1.5,3.6-1.7,5-0.4l0,0
		c1.5,1.3,1.7,3.6,0.4,5l-30.3,34.9C66.2,120.5,64,120.6,62.5,119.3z"/>
	<line id="XMLID_11_" class="st2" x1="78.1" y1="95.8" x2="83.6" y2="100.4"/>
</g>
<g id="XMLID_7_">
	<path id="XMLID_4_" class="st3" d="M61.9,137.4l-15.7,6.5c-1.7,0.7-3.7-0.9-3.3-2.7l3.1-17.5c0.1-0.7,1-0.9,1.5-0.4L62,135.8
		C62.6,136.3,62.5,137.1,61.9,137.4z"/>
	<path id="XMLID_1_" class="st3" d="M67.3,131.1l-15.6-13.2c-0.2-0.2-0.3-0.6-0.1-0.8l74.9-84.9c0.3-0.4,0.9-0.4,1.2-0.1l11.7,9.9
		c0.3,0.3,0.4,0.8,0.1,1.2l-70.9,87.9C68.4,131.4,67.7,131.5,67.3,131.1z"/>
	<path id="XMLID_2_" class="st3" d="M143.9,36.9L132,27c-0.1-0.1-0.1-0.3,0-0.4l1.4-1.6c2.4-2.9,6.7-3.2,9.6-0.8l1.5,1.3
		c3,2.5,3.3,7,0.8,10L143.9,36.9C144,37,144,37,143.9,36.9z"/>
	<line id="XMLID_3_" class="st4" x1="41.3" y1="147.1" x2="41.9" y2="146.5"/>
	<path id="XMLID_5_" class="st3" d="M64.5,117.7L64.5,117.7c-1.5-1.3-1.7-3.6-0.4-5l30.3-35c1.3-1.5,3.6-1.7,5-0.4l0,0
		c1.5,1.3,1.7,3.6,0.4,5l-30.3,34.9C68.2,118.9,66,119,64.5,117.7z"/>
	<line id="XMLID_6_" class="st5" x1="80.1" y1="94.2" x2="85.6" y2="98.8"/>
</g>
</svg>
